<?xml version="1.0" encoding="UTF-8" standalone="no"?>
<!-- Created with Inkscape (http://www.inkscape.org/) -->

<svg
   width="210mm"
   height="297mm"
   viewBox="0 0 210 297"
   version="1.1"
   id="svg9428"
   inkscape:version="1.2.2 (732a01da63, 2022-12-09)"
   sodipodi:docname="balon3.svg"
   xmlns:inkscape="http://www.inkscape.org/namespaces/inkscape"
   xmlns:sodipodi="http://sodipodi.sourceforge.net/DTD/sodipodi-0.dtd"
   xmlns="http://www.w3.org/2000/svg"
   xmlns:svg="http://www.w3.org/2000/svg">
  <sodipodi:namedview
     id="namedview9430"
     pagecolor="#ffffff"
     bordercolor="#000000"
     borderopacity="0.25"
     inkscape:showpageshadow="2"
     inkscape:pageopacity="0.0"
     inkscape:pagecheckerboard="0"
     inkscape:deskcolor="#d1d1d1"
     inkscape:document-units="mm"
     showgrid="false"
     inkscape:zoom="0.71624579"
     inkscape:cx="222.68892"
     inkscape:cy="468.41462"
     inkscape:window-width="1920"
     inkscape:window-height="991"
     inkscape:window-x="-9"
     inkscape:window-y="-9"
     inkscape:window-maximized="1"
     inkscape:current-layer="layer1" />
  <defs
     id="defs9425">
    <clipPath
       clipPathUnits="userSpaceOnUse"
       id="clipPath6588">
      <path
         style="opacity:1;fill:#fe405a;fill-opacity:1;stroke:#832049;stroke-width:1;stroke-linejoin:bevel;stroke-dasharray:none;stroke-opacity:1;stop-color:#000000"
         d="m 106.16887,143.72987 c 0,0 28.81343,-22.53358 20.50186,-42.29664 -8.31156,-19.763065 -24.47294,-11.72855 -27.705221,-7.480416 -3.232274,4.248134 -7.849811,9.696826 -16.807833,5.725747 -8.958022,-3.971083 -28.536382,5.818099 -16.346083,26.781719 12.190299,20.96362 40.357277,17.26959 40.357277,17.26959 z"
         id="path6590" />
    </clipPath>
    <clipPath
       clipPathUnits="userSpaceOnUse"
       id="clipPath6588-6">
      <path
         style="opacity:1;fill:#fe405a;fill-opacity:1;stroke:#832049;stroke-width:1;stroke-linejoin:bevel;stroke-dasharray:none;stroke-opacity:1;stop-color:#000000"
         d="m 106.16887,143.72987 c 0,0 28.81343,-22.53358 20.50186,-42.29664 -8.31156,-19.763065 -24.47294,-11.72855 -27.705221,-7.480416 -3.232274,4.248134 -7.849811,9.696826 -16.807833,5.725747 -8.958022,-3.971083 -28.536382,5.818099 -16.346083,26.781719 12.190299,20.96362 40.357277,17.26959 40.357277,17.26959 z"
         id="path6590-4" />
    </clipPath>
    <clipPath
       clipPathUnits="userSpaceOnUse"
       id="clipPath10356">
      <rect
         style="fill:#ff3052;fill-opacity:1;stroke:#832049;stroke-width:0;stroke-linejoin:bevel;stop-color:#000000"
         id="rect10358"
         width="63.537312"
         height="91.611938"
         x="82.746269"
         y="110.08208" />
    </clipPath>
  </defs>
  <g
     inkscape:label="Layer 1"
     inkscape:groupmode="layer"
     id="layer1">
    <g
       id="g11925">
      <path
         style="fill:#000000;fill-opacity:1;stroke:#832049;stroke-width:0;stroke-linejoin:bevel;stroke-dasharray:none;stroke-opacity:1;stop-color:#000000"
         d="m 121.81305,127.13197 c 0,0 6.98546,8.33304 4.03164,25.07139 -2.95383,16.73835 -37.196338,24.94341 -16.73836,58.42012 20.458,33.47672 60.27995,22.31783 52.40308,52.07488 -7.87686,29.75709 -2.188,15.53498 -2.188,15.53498 0,0 2.94384,-13.48114 3.9495,-16.80753 1.00565,-3.3264 1.39245,-12.91885 -2.16603,-15.70373 -3.55847,-2.7849 -5.183,-5.183 -12.68674,-8.27735 -7.50375,-3.0943 -22.66595,-8.97353 -29.47348,-16.55464 -6.80752,-7.58112 -12.14523,-16.16785 -13.07352,-19.72635 -0.92831,-3.55845 -3.86791,-11.83578 -0.0774,-18.72068 3.79054,-6.88487 18.17917,-22.04707 18.95276,-23.74895 0.77358,-1.70189 2.35943,-6.8462 2.82357,-10.366 0.46415,-3.5198 -0.1161,-11.02354 -0.73491,-12.64806 -0.61886,-1.62453 -2.66158,-5.41518 -2.63017,-7.27168 0.0315,-1.85648 0.0315,-1.85648 0.0315,-1.85648 z"
         id="path9549"
         clip-path="url(#clipPath10356)" />
      <path
         style="fill:#ff80bd;fill-opacity:1;stroke:#832049;stroke-width:3.35063;stroke-linejoin:bevel;stroke-dasharray:none;stroke-opacity:1;stop-color:#000000"
         d="m 121.76409,119.83104 c 0,0 48.27151,-37.750797 34.34703,-70.860104 C 142.18666,15.861629 115.11129,29.321946 109.69621,36.438893 104.28113,43.555856 96.545308,52.684116 81.537822,46.031315 66.530336,39.378514 33.730459,55.778452 54.153025,90.899073 74.575591,126.01969 121.76409,119.83104 121.76409,119.83104 Z"
         id="path9551" />
      <path
         style="fill:#fe405a;fill-opacity:1;stroke:#832049;stroke-width:1.67531;stroke-linejoin:bevel;stroke-dasharray:none;stroke-opacity:1;stop-color:#000000"
         d="m 118.11369,119.25636 c 0,0 -3.83275,3.05632 -3.09429,6.94006 0.73846,3.88373 3.22732,0.95726 3.50083,0.16402 0.2735,-0.79316 0.30086,-1.03932 0.8752,-0.38291 0.57437,0.6564 4.32134,2.59827 4.84101,0.57436 0.51964,-2.02391 0.27349,-2.40682 0.27349,-2.40682 0,0 4.92306,1.44956 4.10254,-1.14871 -0.8205,-2.59828 -6.73298,-4.50631 -6.73298,-4.50631 z"
         id="path9553" />
      <path
         style="fill:#ff80bd;fill-opacity:1;stroke:#832049;stroke-width:0;stroke-linejoin:bevel;stroke-dasharray:none;stroke-opacity:1;stop-color:#000000"
         d="m 53.973632,54.711831 -3.573006,3.76292 c 0,0 -3.108258,5.977751 -2.754533,11.056981 0.353709,5.07923 0.353709,5.07923 0.353709,5.07923 0,0 1.293358,7.077258 3.723282,11.682676 2.429941,4.605435 4.231187,7.458979 6.161633,10.010246 1.930446,2.55125 3.680093,4.537286 3.680093,4.537286 l 10.231236,8.44419 0.256105,-5.45249 L 52.08646,75.826217 55.644321,54.630025 Z"
         id="path9555" />
      <path
         style="fill:#ffb5de;fill-opacity:1;stroke:#832049;stroke-width:0;stroke-linejoin:bevel;stroke-dasharray:none;stroke-opacity:1;stop-color:#000000"
         d="m 60.009131,66.901072 c 0,0 -1.094013,8.916182 1.914514,13.729825 3.008527,4.813643 16.683653,17.832364 14.276831,-0.164013 -2.406821,-17.996462 3.500835,-24.451124 -3.555533,-23.958816 -7.056367,0.492307 -8.314477,1.422206 -9.791382,3.829028 -1.476922,2.406821 -2.84443,6.56406 -2.84443,6.56406 z"
         id="path9557" />
      <ellipse
         style="fill:#ffb5de;fill-opacity:1;stroke:#832049;stroke-width:0;stroke-linejoin:bevel;stroke-dasharray:none;stroke-opacity:1;stop-color:#000000"
         id="ellipse9559"
         cx="78.870094"
         cy="93.15155"
         rx="3.3457417"
         ry="3.1523464" />
      <path
         style="fill:#fe61a5;fill-opacity:1;stroke:#832049;stroke-width:0;stroke-linejoin:bevel;stroke-dasharray:none;stroke-opacity:1;stop-color:#000000"
         d="m 63.571778,107.10609 c 0,0 6.522437,-6.07437 14.002848,-5.05852 7.480411,1.01586 11.359142,5.07929 20.040113,-1.47761 8.680971,-6.556901 10.897381,-10.158582 15.053171,-7.572759 4.15578,2.585821 13.1138,10.805039 11.26679,18.931899 -1.84701,8.12687 -8.63515,17.91605 -13.78492,23.91885 -5.14978,6.0028 -9.94922,6.09515 -13.827951,5.63339 -3.878734,-0.46175 -9.057812,-0.46175 -15.457213,-3.32462 -6.3994,-2.86288 -10.628905,-5.76197 -10.628905,-5.76197 l 8.63182,17.30341 47.006539,-8.30917 7.66511,-38.87966 -8.77332,-16.161383 -35.370339,4.525187 -26.689364,9.419776 z"
         id="path9561"
         clip-path="url(#clipPath6588-6)"
         transform="matrix(1.6753128,0,0,1.6753128,-56.101974,-120.96145)" />
      <text
         xml:space="preserve"
         style="font-size:34.9347px;font-family:'Tabby - Personal Use';-inkscape-font-specification:'Tabby - Personal Use, Normal';fill:#ffb5b3;stroke:#832049;stroke-width:0;stroke-linejoin:bevel;stop-color:#000000"
         x="39.159447"
         y="151.28026"
         id="text9848"
         transform="matrix(0.76451639,-0.58472415,0.47206666,0.94696625,0,0)"><tspan
           sodipodi:role="line"
           id="tspan9846"
           style="stroke-width:0"
           x="39.159447"
           y="151.28026">Oliv</tspan></text>
      <path
         style="fill:#ff3052;fill-opacity:1;stroke:#832049;stroke-width:0;stroke-linejoin:bevel;stop-color:#000000"
         d="m 88.733374,194.30627 c 0,0 -7.296984,-6.93291 -10.336201,-0.15352 -3.039224,6.77941 12.380477,19.60079 12.380477,19.60079 0,0 17.72266,-14.58794 12.62651,-18.5849 -5.096177,-3.99699 -11.921853,1.39671 -11.921853,1.39671 z"
         id="path10283" />
      <path
         style="fill:#ffb5b3;stroke:#832049;stroke-width:0;stroke-linejoin:bevel;stop-color:#000000"
         d="m 107.68023,188.63164 c 0,0 -11.154391,-8.27372 -14.182012,1.52001 -3.027619,9.79373 20.237252,24.77248 20.237252,24.77248 0,0 21.83073,-22.94617 14.18201,-27.56727 -7.64873,-4.62111 -16.09419,3.90861 -16.09419,3.90861 z"
         id="path9900" />
      <text
         xml:space="preserve"
         style="font-size:22.6645px;font-family:'Tabby - Personal Use';-inkscape-font-specification:'Tabby - Personal Use, Normal';fill:#ffb5b3;stroke:#832049;stroke-width:0;stroke-linejoin:bevel;stop-color:#000000"
         x="80.940292"
         y="114.76869"
         id="text9904"
         transform="matrix(0.80489163,-0.50045276,0.24122005,1.0924213,0,0)"><tspan
           sodipodi:role="line"
           id="tspan9902"
           style="stroke-width:0"
           x="80.940292"
           y="114.76869">HBD</tspan></text>
      <path
         style="fill:#ff30b3;fill-opacity:1;stroke:#832049;stroke-width:0;stroke-linejoin:bevel;stop-color:#000000"
         d="m 96.937209,205.03412 c 0,0 -13.873683,0.62913 -10.036232,10.13479 3.837452,9.50566 31.335473,6.42732 31.335473,6.42732 0,0 2.43566,-31.57807 -6.41316,-30.33076 -8.84884,1.24731 -10.0104,13.19439 -10.0104,13.19439 z"
         id="path9906" />
      <path
         style="fill:#2730b3;fill-opacity:1;stroke:#832049;stroke-width:0;stroke-linejoin:bevel;stop-color:#000000"
         d="m 127.4852,190.04835 c 0,0 -6.45807,-7.85012 -10.24609,-1.35022 -3.78801,6.4999 10.06672,21.24011 10.06672,21.24011 0,0 19.2553,-12.69355 14.64904,-17.32213 -4.60627,-4.62859 -11.9967,0.0331 -11.9967,0.0331 z"
         id="path10271" />
      <path
         style="fill:#2730b3;fill-opacity:1;stroke:#832049;stroke-width:0;stroke-linejoin:bevel;stop-color:#000000"
         d="m 90.585148,202.25148 c 0,0 -5.14174,-1.09835 -4.582306,2.75242 0.559438,3.85078 10.913743,5.35666 10.913743,5.35666 0,0 3.707455,-11.33802 0.35257,-11.72854 -3.35489,-0.39052 -4.845549,3.87604 -4.845549,3.87604 z"
         id="path10273" />
      <path
         style="fill:#2730b3;fill-opacity:1;stroke:#832049;stroke-width:0;stroke-linejoin:bevel;stop-color:#000000"
         d="m 103.47776,186.77436 c 0,0 -2.48683,-0.48813 -2.21626,1.22323 0.27058,1.71136 5.27851,2.3806 5.27851,2.3806 0,0 1.79313,-5.03884 0.17052,-5.21239 -1.62262,-0.17355 -2.34359,1.72258 -2.34359,1.72258 z"
         id="path10275" />
      <path
         style="fill:#ffb5ff;fill-opacity:1;stroke:#832049;stroke-width:0;stroke-linejoin:bevel;stop-color:#000000"
         d="m 138.75966,196.70717 c 0,0 -1.60381,-4.15237 -4.10201,-2.01825 -2.49819,2.13413 1.23719,10.17777 1.23719,10.17777 0,0 9.84509,-2.47502 8.56503,-5.03732 -1.28007,-2.5623 -5.02925,-1.69887 -5.02925,-1.69887 z"
         id="path10279" />
      <path
         style="fill:#ffb54f;fill-opacity:1;stroke:#832049;stroke-width:0;stroke-linejoin:bevel;stop-color:#000000"
         d="m 128.77775,200.01288 c 0,0 -3.78052,-9.78805 -9.66932,-4.75746 -5.88879,5.0306 2.91633,23.99122 2.91633,23.99122 0,0 23.20699,-5.83416 20.18961,-11.87406 -3.01739,-6.03989 -11.85501,-4.00461 -11.85501,-4.00461 z"
         id="path10277" />
      <path
         style="fill:#ffb5ff;fill-opacity:1;stroke:#832049;stroke-width:0;stroke-linejoin:bevel;stop-color:#000000"
         d="m 109.89625,202.71494 c 0,0 -1.60381,-4.15237 -4.10201,-2.01825 -2.49819,2.13413 1.23719,10.17777 1.23719,10.17777 0,0 9.84509,-2.47502 8.56503,-5.03732 -1.28007,-2.5623 -5.02925,-1.69887 -5.02925,-1.69887 z"
         id="path10281" />
      <path
         style="fill:#ff3052;fill-opacity:1;stroke:#832049;stroke-width:0;stroke-linejoin:bevel;stop-color:#000000"
         d="m 78.836973,213.06396 c 0,0 -2.610982,-2.48072 -3.698465,-0.0549 -1.087485,2.42579 4.429941,7.01349 4.429941,7.01349 0,0 6.341463,-5.21981 4.517976,-6.64998 -1.823497,-1.4302 -4.265838,0.49976 -4.265838,0.49976 z"
         id="path10285" />
      <path
         style="fill:#ff3052;fill-opacity:1;stroke:#832049;stroke-width:0;stroke-linejoin:bevel;stop-color:#000000"
         d="m 143.35724,186.43268 c 0,0 -1.72445,-1.63841 -2.44268,-0.0363 -0.71824,1.60214 2.92579,4.63212 2.92579,4.63212 0,0 4.18827,-3.44747 2.98394,-4.39203 -1.20435,-0.94459 -2.81741,0.33007 -2.81741,0.33007 z"
         id="path10287" />
      <path
         style="fill:#ff3052;fill-opacity:1;stroke:#832049;stroke-width:0;stroke-linejoin:bevel;stop-color:#000000"
         d="m 149.88742,183.03698 c 0,0 -1.72445,-1.63841 -2.44268,-0.0363 -0.71824,1.60214 2.92579,4.63212 2.92579,4.63212 0,0 4.18827,-3.44747 2.98394,-4.39203 -1.20435,-0.94459 -2.81741,0.33007 -2.81741,0.33007 z"
         id="path10289" />
      <path
         style="fill:#ff3052;fill-opacity:1;stroke:#832049;stroke-width:0;stroke-linejoin:bevel;stop-color:#000000"
         d="m 150.01802,189.56716 c 0,0 -1.72445,-1.63841 -2.44268,-0.0363 -0.71824,1.60214 2.92579,4.63212 2.92579,4.63212 0,0 4.18827,-3.44747 2.98394,-4.39203 -1.20435,-0.94459 -2.81741,0.33007 -2.81741,0.33007 z"
         id="path10291" />
      <path
         style="fill:#ff3052;fill-opacity:1;stroke:#832049;stroke-width:0;stroke-linejoin:bevel;stop-color:#000000"
         d="m 72.9018,210.19631 c 0,0 -0.795689,-0.75599 -1.127091,-0.0168 -0.331408,0.73925 1.350006,2.13733 1.350006,2.13733 0,0 1.932534,-1.59072 1.376837,-2.02655 -0.555706,-0.43585 -1.299998,0.1523 -1.299998,0.1523 z"
         id="path10293" />
    </g>
  </g>
</svg>
