<?xml version="1.0" encoding="UTF-8" standalone="no"?>
<!-- Created with Inkscape (http://www.inkscape.org/) -->

<svg
   width="210mm"
   height="297mm"
   viewBox="0 0 210 297"
   version="1.1"
   id="svg5"
   xml:space="preserve"
   inkscape:version="1.2.2 (732a01da63, 2022-12-09)"
   sodipodi:docname="balon1.svg"
   xmlns:inkscape="http://www.inkscape.org/namespaces/inkscape"
   xmlns:sodipodi="http://sodipodi.sourceforge.net/DTD/sodipodi-0.dtd"
   xmlns="http://www.w3.org/2000/svg"
   xmlns:svg="http://www.w3.org/2000/svg"><sodipodi:namedview
     id="namedview7"
     pagecolor="#ffffff"
     bordercolor="#000000"
     borderopacity="0.25"
     inkscape:showpageshadow="2"
     inkscape:pageopacity="0.0"
     inkscape:pagecheckerboard="0"
     inkscape:deskcolor="#d1d1d1"
     inkscape:document-units="mm"
     showgrid="false"
     inkscape:zoom="0.50646226"
     inkscape:cx="532.12258"
     inkscape:cy="842.11606"
     inkscape:window-width="1920"
     inkscape:window-height="991"
     inkscape:window-x="-9"
     inkscape:window-y="-9"
     inkscape:window-maximized="1"
     inkscape:current-layer="g9225" /><defs
     id="defs2"><clipPath
       clipPathUnits="userSpaceOnUse"
       id="clipPath6588"><path
         style="opacity:1;fill:#fe405a;fill-opacity:1;stroke:#832049;stroke-width:1;stroke-linejoin:bevel;stroke-dasharray:none;stroke-opacity:1;stop-color:#000000"
         d="m 106.16887,143.72987 c 0,0 28.81343,-22.53358 20.50186,-42.29664 -8.31156,-19.763065 -24.47294,-11.72855 -27.705221,-7.480416 -3.232274,4.248134 -7.849811,9.696826 -16.807833,5.725747 -8.958022,-3.971083 -28.536382,5.818099 -16.346083,26.781719 12.190299,20.96362 40.357277,17.26959 40.357277,17.26959 z"
         id="path6590" /></clipPath></defs><g
     inkscape:label="Layer 1"
     inkscape:groupmode="layer"
     id="layer1"><g
       id="g9225"><g
         id="g18683"><g
           id="g8990"
           transform="matrix(1.6487964,0,0,1.6487964,-52.249017,-68.973126)"><path
             style="opacity:1;fill:#fe405a;fill-opacity:1;stroke:#832049;stroke-width:2;stroke-linejoin:bevel;stroke-dasharray:none;stroke-opacity:1;stop-color:#000000"
             d="m 106.46819,144.2344 c 0,0 28.81343,-22.53358 20.50186,-42.29664 -8.31156,-19.763066 -24.47294,-11.728551 -27.705224,-7.480417 -3.232275,4.248134 -7.849812,9.696827 -16.807834,5.725747 -8.958023,-3.971083 -28.536381,5.8181 -16.346083,26.78172 12.190299,20.96362 40.357281,17.26959 40.357281,17.26959 z"
             id="path302" /><path
             style="opacity:1;fill:#fe405a;fill-opacity:1;stroke:#832049;stroke-width:1;stroke-linejoin:bevel;stroke-dasharray:none;stroke-opacity:1;stop-color:#000000"
             d="m 104.28925,143.89137 c 0,0 -2.28778,1.82433 -1.84699,4.14255 0.44079,2.31821 1.9264,0.57139 2.08966,0.0979 0.16325,-0.47344 0.17958,-0.62037 0.52241,-0.22856 0.34284,0.39181 2.57942,1.55092 2.88961,0.34284 0.31018,-1.20808 0.16325,-1.43664 0.16325,-1.43664 0,0 2.93859,0.86525 2.44882,-0.68567 -0.48976,-1.55092 -4.01894,-2.68983 -4.01894,-2.68983 z"
             id="path304" /><path
             style="opacity:0.754;fill:#000000;fill-opacity:1;stroke:#000000;stroke-width:0.264999;stroke-linejoin:bevel;stroke-opacity:1;stop-color:#000000"
             d="m 107.10144,148.7803 c 0,0 1.1915,2.42998 0.12946,6.90899 -1.06203,4.47901 -6.9263,11.12826 -5.40252,15.88433 1.52379,4.75606 7.29571,7.80364 7.57276,9.97388 0.27706,2.17024 0.61613,2.1902 0.61613,2.1902 0,0 0.0163,-2.82431 -1.33869,-4.11402 -1.35501,-1.28971 -5.99144,-6.05674 -5.99144,-8.37496 0,-2.31821 0.60404,-5.58331 2.31822,-8.30966 1.71417,-2.72635 3.26509,-7.13784 3.36304,-9.38714 0.098,-2.24929 -0.66476,-4.92344 -0.66476,-4.92344 z"
             id="path306" /><path
             style="opacity:1;fill:#fe405a;fill-opacity:1;stroke:#832049;stroke-width:0;stroke-linejoin:bevel;stroke-dasharray:none;stroke-opacity:1;stop-color:#000000"
             d="m 66.003833,105.36452 -2.13274,2.2461 c 0,0 -1.855337,3.56814 -1.644197,6.59995 0.211137,3.03181 0.211137,3.03181 0.211137,3.03181 0,0 0.772009,4.22444 2.222442,6.97343 1.450433,2.749 2.525609,4.45229 3.677899,5.97515 1.152289,1.52285 2.196653,2.70832 2.196653,2.70832 l 6.107067,5.04037 0.152868,-3.25461 -11.917587,-16.71727 2.123691,-12.65208 z"
             id="path6690" /><path
             style="opacity:1;fill:#ff8097;fill-opacity:1;stroke:#832049;stroke-width:0;stroke-linejoin:bevel;stroke-dasharray:none;stroke-opacity:1;stop-color:#000000"
             d="m 69.606436,112.64032 c 0,0 -0.65302,5.3221 1.14278,8.19538 1.7958,2.87328 9.95853,10.6442 8.52189,-0.0979 -1.43664,-10.74215 2.08966,-14.59496 -2.12231,-14.3011 -4.21197,0.29386 -4.96294,0.84892 -5.84451,2.28556 -0.88158,1.43664 -1.69785,3.91811 -1.69785,3.91811 z"
             id="path5715" /><ellipse
             style="opacity:1;fill:#ff8097;fill-opacity:1;stroke:#832049;stroke-width:0;stroke-linejoin:bevel;stroke-dasharray:none;stroke-opacity:1;stop-color:#000000"
             id="path5769"
             cx="80.864616"
             cy="128.30931"
             rx="1.9970849"
             ry="1.8816465" /><path
             style="opacity:1;fill:#fe293d;fill-opacity:1;stroke:#832049;stroke-width:0;stroke-linejoin:bevel;stroke-dasharray:none;stroke-opacity:1;stop-color:#000000"
             d="m 63.571778,107.10609 c 0,0 6.522437,-6.07437 14.002848,-5.05852 7.480411,1.01586 11.359142,5.07929 20.040113,-1.47761 8.680971,-6.556901 10.897381,-10.158582 15.053171,-7.572759 4.15578,2.585821 13.1138,10.805039 11.26679,18.931899 -1.84701,8.12687 -8.63515,17.91605 -13.78492,23.91885 -5.14978,6.0028 -9.94922,6.09515 -13.827951,5.63339 -3.878734,-0.46175 -9.057812,-0.46175 -15.457213,-3.32462 -6.3994,-2.86288 -10.628905,-5.76197 -10.628905,-5.76197 l 8.63182,17.30341 47.006539,-8.30917 7.66511,-38.87966 -8.77332,-16.161383 -35.370339,4.525187 -26.689364,9.419776 z"
             id="path6584"
             clip-path="url(#clipPath6588)"
             transform="translate(0.299316,0.504529)" /></g><path
           style="fill:#ff6dad;fill-opacity:1;stroke:#832049;stroke-width:0;stroke-linejoin:bevel;stop-color:#000000"
           d="m 129.33446,227.87847 c 0,0 -4.25222,-3.10388 -5.37146,0.61732 -1.11923,3.72124 7.74309,9.3316 7.74309,9.3316 0,0 8.20862,-8.76141 5.29586,-10.49089 -2.91277,-1.72949 -6.08935,1.52831 -6.08935,1.52831 z"
           id="path18157"
           inkscape:transform-center-x="0.34514272"
           inkscape:transform-center-y="0.69787833" /><path
           style="fill:#ff595a;fill-opacity:1;stroke:#832049;stroke-width:0;stroke-linejoin:bevel;stop-color:#000000"
           d="m 111.9066,242.63449 c 0,0 -13.055577,2.0096 -8.45746,10.60737 4.59822,8.59782 30.28801,2.88284 30.28801,2.88284 0,0 -0.91663,-30.11039 -9.1574,-28.02855 -8.24078,2.08183 -8.12099,13.49806 -8.12099,13.49806 z"
           id="path18624"
           inkscape:transform-center-x="3.4251993"
           inkscape:transform-center-y="-3.0595153" /><path
           style="fill:#ff598c;fill-opacity:1;stroke:#832049;stroke-width:0;stroke-linejoin:bevel;stop-color:#000000"
           d="m 148.65103,240.81418 c 0,0 -5.70651,-11.91312 -12.603,-5.02089 -6.89651,6.89233 6.01744,29.82389 6.01744,29.82389 0,0 28.55292,-9.60242 24.17246,-16.88638 -4.38045,-7.28395 -15.27216,-3.86121 -15.27216,-3.86121 z"
           id="path18626"
           inkscape:transform-center-x="-2.1870929"
           inkscape:transform-center-y="-1.3798052" /><path
           style="fill:#ffce8c;fill-opacity:1;stroke:#832049;stroke-width:0;stroke-linejoin:bevel;stop-color:#000000"
           d="m 129.34521,262.35358 c 0,0 -3.0031,-6.26938 -6.63244,-2.64229 -3.62934,3.62715 3.16673,15.69507 3.16673,15.69507 0,0 15.02621,-5.05335 12.72096,-8.8866 -2.30525,-3.83324 -8.0371,-2.03199 -8.0371,-2.03199 z"
           id="path18628"
           inkscape:transform-center-x="-1.1509745"
           inkscape:transform-center-y="-0.72613338" /><path
           style="fill:#ffce8c;fill-opacity:1;stroke:#832049;stroke-width:0;stroke-linejoin:bevel;stop-color:#000000"
           d="m 131.44727,258.79955 c 0,0 -0.76116,-1.589 -1.68103,-0.6697 -0.91988,0.91932 0.80262,3.978 0.80262,3.978 0,0 3.80848,-1.2808 3.2242,-2.25236 -0.58428,-0.97155 -2.03705,-0.51501 -2.03705,-0.51501 z"
           id="path18630"
           inkscape:transform-center-x="-0.29172049"
           inkscape:transform-center-y="-0.18404202" /><path
           style="fill:#ffce8c;fill-opacity:1;stroke:#832049;stroke-width:0;stroke-linejoin:bevel;stop-color:#000000"
           d="m 137.00085,261.25953 c 0,0 -0.51389,-1.07281 -1.13494,-0.45215 -0.62105,0.62068 0.54189,2.68573 0.54189,2.68573 0,0 2.57128,-0.86473 2.1768,-1.52067 -0.39447,-0.65594 -1.3753,-0.34771 -1.3753,-0.34771 z"
           id="path18632"
           inkscape:transform-center-x="-0.19695419"
           inkscape:transform-center-y="-0.12425503" /><path
           style="fill:#ff638c;fill-opacity:1;stroke:#832049;stroke-width:0;stroke-linejoin:bevel;stop-color:#000000"
           d="m 135.70794,256.27259 c 0,0 -0.51389,-1.07281 -1.13494,-0.45215 -0.62105,0.62068 0.54189,2.68573 0.54189,2.68573 0,0 2.57128,-0.86473 2.1768,-1.52067 -0.39447,-0.65594 -1.3753,-0.34771 -1.3753,-0.34771 z"
           id="path18634"
           inkscape:transform-center-x="-0.19695419"
           inkscape:transform-center-y="-0.12425503" /><path
           style="fill:#ff65fa;fill-opacity:1;stroke:#832049;stroke-width:0;stroke-linejoin:bevel;stop-color:#000000"
           d="m 113.68562,265.29036 c 0,0 -6.87614,-1.02098 -5.90222,4.01681 0.97398,5.03783 14.77826,6.1617 14.77826,6.1617 0,0 4.22395,-15.28011 -0.24287,-15.51566 -4.46682,-0.23554 -6.1828,5.52241 -6.1828,5.52241 z"
           id="path18636"
           inkscape:transform-center-x="1.9622582"
           inkscape:transform-center-y="-0.7963625" /><path
           style="fill:#ff65fa;fill-opacity:1;stroke:#832049;stroke-width:0;stroke-linejoin:bevel;stop-color:#000000"
           d="m 128.64155,239.29731 c 0,0 -4.21406,-5.52859 -7.03091,-1.23986 -2.81684,4.28879 6.28904,14.72451 6.28904,14.72451 0,0 13.68635,-8.00045 10.65047,-11.28548 -3.03588,-3.28502 -8.2823,-0.35694 -8.2823,-0.35694 z"
           id="path18638"
           inkscape:transform-center-x="-0.54544141"
           inkscape:transform-center-y="0.0011008285" /><path
           style="fill:#6d65fa;fill-opacity:1;stroke:#832049;stroke-width:0;stroke-linejoin:bevel;stop-color:#000000"
           d="m 155.4153,255.10036 c 0,0 -4.21406,-5.52859 -7.03091,-1.23986 -2.81684,4.28879 6.28904,14.72451 6.28904,14.72451 0,0 13.68635,-8.00045 10.65047,-11.28548 -3.03588,-3.28502 -8.2823,-0.35694 -8.2823,-0.35694 z"
           id="path18640"
           inkscape:transform-center-x="-0.54544141"
           inkscape:transform-center-y="0.0011008285" /><path
           style="fill:#6d65fa;fill-opacity:1;stroke:#832049;stroke-width:0;stroke-linejoin:bevel;stop-color:#000000"
           d="m 102.56808,255.21627 c 0,0 -6.95136,-0.0468 -5.280731,4.80467 1.67068,4.8515 15.496181,4.02883 15.496181,4.02883 0,0 2.03987,-15.7214 -2.41586,-15.32835 -4.45572,0.39306 -5.34744,6.33473 -5.34744,6.33473 z"
           id="path18642"
           inkscape:transform-center-x="2.1428723"
           inkscape:transform-center-y="-1.3860332" /><path
           style="fill:#6ddffa;fill-opacity:1;stroke:#832049;stroke-width:0;stroke-linejoin:bevel;stop-color:#000000"
           d="m 149.4548,236.01753 c 0,0 -6.95136,-0.0468 -5.28073,4.80467 1.67068,4.8515 15.49618,4.02883 15.49618,4.02883 0,0 2.03987,-15.7214 -2.41586,-15.32835 -4.45572,0.39306 -5.34744,6.33473 -5.34744,6.33473 z"
           id="path18644"
           inkscape:transform-center-x="2.1428723"
           inkscape:transform-center-y="-1.3860332" /><path
           style="fill:#ff65fa;fill-opacity:1;stroke:#832049;stroke-width:0;stroke-linejoin:bevel;stop-color:#000000"
           d="m 103.22956,237.60325 c 0,0 -2.87633,-2.06412 -3.608746,0.44433 -0.732394,2.50848 5.257686,6.23302 5.257686,6.23302 0,0 5.47233,-5.93635 3.5042,-7.08352 -1.96813,-1.14717 -4.08653,1.06086 -4.08653,1.06086 z"
           id="path18646"
           inkscape:transform-center-x="0.246723"
           inkscape:transform-center-y="0.4810213" /><path
           style="fill:#ff65fa;fill-opacity:1;stroke:#832049;stroke-width:0;stroke-linejoin:bevel;stop-color:#000000"
           d="m 92.701575,233.35512 c 0,0 -2.87633,-2.06412 -3.608746,0.44433 -0.732394,2.50848 5.257686,6.23302 5.257686,6.23302 0,0 5.47233,-5.93635 3.5042,-7.08352 -1.96813,-1.14717 -4.08653,1.06086 -4.08653,1.06086 z"
           id="path18648"
           inkscape:transform-center-x="0.246723"
           inkscape:transform-center-y="0.4810213" /><path
           style="fill:#ff65fa;fill-opacity:1;stroke:#832049;stroke-width:0;stroke-linejoin:bevel;stop-color:#000000"
           d="m 95.310633,241.75985 c 0,0 -1.881458,-1.35018 -2.360544,0.29064 -0.479072,1.64084 3.439144,4.07713 3.439144,4.07713 0,0 3.579545,-3.88307 2.292159,-4.63345 -1.287388,-0.75039 -2.673071,0.69392 -2.673071,0.69392 z"
           id="path18650"
           inkscape:transform-center-x="0.16138572"
           inkscape:transform-center-y="0.31464408" /></g></g></g></svg>
