<?xml version="1.0" encoding="UTF-8" standalone="no"?>
<!-- Created with Inkscape (http://www.inkscape.org/) -->

<svg
   width="210mm"
   height="297mm"
   viewBox="0 0 210 297"
   version="1.1"
   id="svg9239"
   inkscape:version="1.2.2 (732a01da63, 2022-12-09)"
   sodipodi:docname="balon2.svg"
   xmlns:inkscape="http://www.inkscape.org/namespaces/inkscape"
   xmlns:sodipodi="http://sodipodi.sourceforge.net/DTD/sodipodi-0.dtd"
   xmlns="http://www.w3.org/2000/svg"
   xmlns:svg="http://www.w3.org/2000/svg">
  <sodipodi:namedview
     id="namedview9241"
     pagecolor="#ffffff"
     bordercolor="#000000"
     borderopacity="0.25"
     inkscape:showpageshadow="2"
     inkscape:pageopacity="0.0"
     inkscape:pagecheckerboard="0"
     inkscape:deskcolor="#d1d1d1"
     inkscape:document-units="mm"
     showgrid="false"
     inkscape:zoom="0.50646226"
     inkscape:cx="230.02701"
     inkscape:cy="567.66323"
     inkscape:window-width="1920"
     inkscape:window-height="991"
     inkscape:window-x="-9"
     inkscape:window-y="-9"
     inkscape:window-maximized="1"
     inkscape:current-layer="layer1"
     inkscape:lockguides="true" />
  <defs
     id="defs9236">
    <clipPath
       clipPathUnits="userSpaceOnUse"
       id="clipPath6588">
      <path
         style="opacity:1;fill:#fe405a;fill-opacity:1;stroke:#832049;stroke-width:1;stroke-linejoin:bevel;stroke-dasharray:none;stroke-opacity:1;stop-color:#000000"
         d="m 106.16887,143.72987 c 0,0 28.81343,-22.53358 20.50186,-42.29664 -8.31156,-19.763065 -24.47294,-11.72855 -27.705221,-7.480416 -3.232274,4.248134 -7.849811,9.696826 -16.807833,5.725747 -8.958022,-3.971083 -28.536382,5.818099 -16.346083,26.781719 12.190299,20.96362 40.357277,17.26959 40.357277,17.26959 z"
         id="path6590" />
    </clipPath>
  </defs>
  <g
     inkscape:label="Layer 1"
     inkscape:groupmode="layer"
     id="layer1">
    <g
       id="g18212">
      <g
         id="g9234"
         transform="matrix(1.5747747,0,0,1.5747747,184.85575,-258.86383)">
        <path
           style="fill:#000000;fill-opacity:1;stroke:#832049;stroke-width:0;stroke-linejoin:bevel;stroke-dasharray:none;stroke-opacity:1;stop-color:#000000"
           d="m -71.691965,320.82599 c 0,0 -0.811834,-6.43955 6.080859,-13.88422 6.892694,-7.44467 26.728064,-0.49364 27.282933,-23.90529 0.554873,-23.41169 -23.035092,-30.68394 -9.46386,-43.07021 13.571244,-12.38629 6.119427,-7.08835 6.119427,-7.08835 0,0 -5.834834,5.81339 -7.41469,7.15754 -1.579862,1.34416 -4.874588,6.03272 -3.989077,8.58042 0.885488,2.54772 0.925541,4.27621 3.690786,8.25446 2.765257,3.97822 8.473404,11.82945 9.438999,17.83416 0.965584,6.0047 0.868554,12.03895 0.184147,14.12468 -0.684389,2.08573 -1.884797,7.18955 -6.012359,9.41923 -4.127567,2.22965 -16.248876,5.18726 -17.187182,5.79122 -0.938296,0.60398 -3.396918,2.67284 -4.767558,4.28908 -1.370635,1.61623 -3.504941,5.56923 -3.719521,6.58445 -0.214558,1.01525 -0.414772,3.57771 -1.030624,4.49916 -0.615886,0.92142 -0.615886,0.92142 -0.615886,0.92142 z"
           id="path9216" />
        <path
           style="opacity:1;fill:#ff8065;fill-opacity:1;stroke:#832049;stroke-width:2;stroke-linejoin:bevel;stroke-dasharray:none;stroke-opacity:1;stop-color:#000000"
           d="m -51.852939,249.54098 c 0,0 -34.154588,-13.0935 -32.003868,-34.42505 2.15071,-21.33155 19.957678,-18.38953 24.293605,-15.27601 4.335931,3.11352 10.348278,6.96859 17.747971,0.54519 7.399693,-6.42341 28.987967,-2.80587 23.481097,20.81088 -5.506872,23.61676 -33.518805,28.34499 -33.518805,28.34499 z"
           id="path6692" />
        <path
           style="opacity:1;fill:#fe405a;fill-opacity:1;stroke:#832049;stroke-width:1;stroke-linejoin:bevel;stroke-dasharray:none;stroke-opacity:1;stop-color:#000000"
           d="m -49.870385,248.57407 c 0,0 2.722181,1.07324 2.980579,3.41881 0.258395,2.34555 -1.674152,1.11118 -1.969084,0.70638 -0.294907,-0.40476 -0.353606,-0.54044 -0.566467,-0.0653 -0.212871,0.47512 -2.011219,2.23914 -2.662037,1.17514 -0.650809,-1.06401 -0.577363,-1.32561 -0.577363,-1.32561 0,0 -2.555669,1.68894 -2.542232,0.0626 0.01343,-1.62636 3.053472,-3.75012 3.053472,-3.75012 z"
           id="path6694" />
        <path
           style="opacity:1;fill:#ff8065;fill-opacity:1;stroke:#832049;stroke-width:0;stroke-linejoin:bevel;stroke-dasharray:none;stroke-opacity:1;stop-color:#000000"
           d="m -24.565967,200.51392 2.697639,1.52194 c 0,0 2.820108,2.8672 3.507317,5.82764 0.687219,2.96043 0.687219,2.96043 0.687219,2.96043 0,0 0.500732,4.26511 -0.0798,7.31858 -0.58054,3.05348 -1.108958,4.99718 -1.764017,6.791 -0.655062,1.7938 -1.305883,3.23341 -1.305883,3.23341 l -4.360505,6.60966 -1.100552,-3.0667 6.491378,-19.47712 -5.740512,-11.47309 z"
           id="path6698" />
        <path
           style="opacity:1;fill:#ffb5b3;fill-opacity:1;stroke:#832049;stroke-width:0;stroke-linejoin:bevel;stroke-dasharray:none;stroke-opacity:1;stop-color:#000000"
           d="m -25.876594,208.5263 c 0,0 2.184998,4.89663 1.310726,8.17021 -0.874273,3.27357 -6.39935,13.09655 -8.175951,2.40541 -1.776615,-10.69118 -6.27771,-13.34053 -2.164738,-14.29474 4.112972,-0.9542 4.993696,-0.64376 6.257799,0.4712 1.264113,1.11496 2.772179,3.24797 2.772179,3.24797 z"
           id="path6700" />
        <ellipse
           style="opacity:1;fill:#ffb5b3;fill-opacity:1;stroke:#832049;stroke-width:0;stroke-linejoin:bevel;stroke-dasharray:none;stroke-opacity:1;stop-color:#000000"
           id="ellipse6702"
           cx="97.146736"
           cy="207.43961"
           rx="1.9970849"
           ry="1.8816465"
           transform="matrix(-0.95603692,0.29324633,0.29324633,0.95603692,0,0)" />
        <path
           style="opacity:1;fill:#fe6146;fill-opacity:1;stroke:#832049;stroke-width:0;stroke-linejoin:bevel;stroke-dasharray:none;stroke-opacity:1;stop-color:#000000"
           d="m 63.571778,107.10609 c 0,0 6.522437,-6.07437 14.002848,-5.05852 7.480411,1.01586 11.359142,5.07929 20.040113,-1.47761 8.680971,-6.556901 10.897381,-10.158582 15.053171,-7.572759 4.15578,2.585821 13.1138,10.805039 11.26679,18.931899 -1.84701,8.12687 -8.63515,17.91605 -13.78492,23.91885 -5.14978,6.0028 -9.94922,6.09515 -13.827951,5.63339 -3.878734,-0.46175 -9.057812,-0.46175 -15.457213,-3.32462 -6.3994,-2.86288 -10.628905,-5.76197 -10.628905,-5.76197 l 8.63182,17.30341 47.006539,-8.30917 7.66511,-38.87966 -8.77332,-16.161383 -35.370339,4.525187 -26.689364,9.419776 z"
           id="path6704"
           clip-path="url(#clipPath6588)"
           transform="matrix(-0.95603692,0.29324633,0.29324633,0.95603692,7.5001692,80.996285)" />
      </g>
      <text
         xml:space="preserve"
         style="font-size:20.5496px;font-family:'Tabby - Personal Use';-inkscape-font-specification:'Tabby - Personal Use, Normal';fill:#ffb5b3;stroke:#832049;stroke-width:0;stroke-linejoin:bevel;stop-color:#000000"
         x="-4.7263508"
         y="114.00974"
         id="text13054"
         transform="rotate(-39.630654)"><tspan
           sodipodi:role="line"
           id="tspan13052"
           style="stroke-width:0"
           x="-4.7263508"
           y="114.00974">Oliv </tspan><tspan
           sodipodi:role="line"
           style="stroke-width:0"
           x="-4.7263508"
           y="139.69673"
           id="tspan13056">Pacar </tspan><tspan
           sodipodi:role="line"
           style="stroke-width:0"
           x="-4.7263508"
           y="165.38373"
           id="tspan13058">ade</tspan></text>
      <path
         style="fill:#ffb54f;fill-opacity:1;stroke:#832049;stroke-width:0;stroke-linejoin:bevel;stop-color:#000000"
         d="m 79.965675,225.32933 c 0,0 -3.78052,-9.78805 -9.66932,-4.75746 -5.88879,5.0306 2.91633,23.99122 2.91633,23.99122 0,0 23.20699,-5.83416 20.18961,-11.87406 -3.01739,-6.03989 -11.85501,-4.00461 -11.85501,-4.00461 z"
         id="path10277" />
      <path
         style="fill:#ff6d4f;fill-opacity:1;stroke:#832049;stroke-width:0;stroke-linejoin:bevel;stop-color:#000000"
         d="m 54.171452,230.94717 c 0,0 -10.287052,2.06756 -6.326877,8.72352 3.960188,6.65596 24.138485,1.19047 24.138485,1.19047 0,0 -1.818053,-23.85994 -8.281848,-21.90947 -6.463786,1.95048 -5.955213,11.00516 -5.955213,11.00516 z"
         id="path17490" />
      <path
         style="fill:#ff6d9b;fill-opacity:1;stroke:#832049;stroke-width:0;stroke-linejoin:bevel;stop-color:#000000"
         d="m 67.958715,239.26909 c 0,0 -6.213064,-4.04309 -7.505784,1.27353 -1.292713,5.31664 11.591477,12.53582 11.591477,12.53582 0,0 10.880012,-12.93847 6.654033,-15.15025 -4.225984,-2.21179 -8.44638,2.6086 -8.44638,2.6086 z"
         id="path17855"
         inkscape:transform-center-x="-1.6623134"
         inkscape:transform-center-y="8.311567" />
      <path
         style="fill:#ff6df0;fill-opacity:1;stroke:#832049;stroke-width:0;stroke-linejoin:bevel;stop-color:#000000"
         d="m 49.357783,236.03594 c 0,0 -6.879785,-2.75994 -7.115729,2.70649 -0.235932,5.46646 13.804663,10.04691 13.804663,10.04691 0,0 8.161099,-14.80456 3.586126,-16.15382 -4.57498,-1.34926 -7.779235,4.19877 -7.779235,4.19877 z"
         id="path17857"
         inkscape:transform-center-x="-2.345196"
         inkscape:transform-center-y="6.9703256" />
      <path
         style="fill:#ff6df0;fill-opacity:1;stroke:#832049;stroke-width:0;stroke-linejoin:bevel;stop-color:#000000"
         d="m 88.521818,227.4702 c 0,0 -7.257755,-1.50789 -6.529319,3.91493 0.728453,5.42283 15.35551,7.46441 15.35551,7.46441 0,0 5.432221,-16.00842 0.69133,-16.53264 -4.740903,-0.52421 -6.920235,5.50058 -6.920235,5.50058 z"
         id="path18143"
         inkscape:transform-center-x="1.9477336"
         inkscape:transform-center-y="-0.58783305" />
      <path
         style="fill:#546dad;fill-opacity:1;stroke:#832049;stroke-width:0;stroke-linejoin:bevel;stop-color:#000000"
         d="m 69.263996,225.0012 c 0,0 -4.167737,-0.8659 -3.749436,2.24813 0.418311,3.11404 8.817843,4.28641 8.817843,4.28641 0,0 3.119432,-9.19277 0.396993,-9.4938 -2.722445,-0.30103 -3.973918,3.15868 -3.973918,3.15868 z"
         id="path18145"
         inkscape:transform-center-x="1.1184785"
         inkscape:transform-center-y="-0.33755891" />
      <path
         style="fill:#546dad;fill-opacity:1;stroke:#832049;stroke-width:0;stroke-linejoin:bevel;stop-color:#000000"
         d="m 53.704249,226.41171 c 0,0 -2.851618,-0.59246 -2.565412,1.53819 0.286214,2.13067 6.03328,2.93282 6.03328,2.93282 0,0 2.134355,-6.28981 0.271628,-6.49578 -1.862732,-0.20597 -2.719005,2.16121 -2.719005,2.16121 z"
         id="path18147"
         inkscape:transform-center-x="0.76527723"
         inkscape:transform-center-y="-0.23096334" />
      <path
         style="fill:#ff6dad;fill-opacity:1;stroke:#832049;stroke-width:0;stroke-linejoin:bevel;stop-color:#000000"
         d="m 32.650214,230.98873 c 0,0 -4.252226,-3.10388 -5.371458,0.61732 -1.119231,3.72124 7.74309,9.3316 7.74309,9.3316 0,0 8.208617,-8.76141 5.295857,-10.49089 -2.91277,-1.72949 -6.089354,1.52831 -6.089354,1.52831 z"
         id="path18149"
         inkscape:transform-center-x="0.34514272"
         inkscape:transform-center-y="0.69787833" />
      <path
         style="fill:#ff6dad;fill-opacity:1;stroke:#832049;stroke-width:0;stroke-linejoin:bevel;stop-color:#000000"
         d="m 40.101234,225.68859 c 0,0 -1.859929,-1.35764 -2.349482,0.27002 -0.489553,1.62767 3.386837,4.08165 3.386837,4.08165 0,0 3.590458,-3.83225 2.316414,-4.58873 -1.274049,-0.75648 -2.663491,0.66849 -2.663491,0.66849 z"
         id="path18151"
         inkscape:transform-center-x="0.15096579"
         inkscape:transform-center-y="0.30525283" />
      <path
         style="fill:#ff6dad;fill-opacity:1;stroke:#832049;stroke-width:0;stroke-linejoin:bevel;stop-color:#000000"
         d="m 32.343771,222.73337 c 0,0 -1.859929,-1.35764 -2.349482,0.27002 -0.489553,1.62767 3.386837,4.08165 3.386837,4.08165 0,0 3.590458,-3.83225 2.316414,-4.58873 -1.274049,-0.75648 -2.663491,0.66849 -2.663491,0.66849 z"
         id="path18153"
         inkscape:transform-center-x="0.15096579"
         inkscape:transform-center-y="0.30525283" />
      <path
         style="fill:#ff6dad;fill-opacity:1;stroke:#832049;stroke-width:0;stroke-linejoin:bevel;stop-color:#000000"
         d="m 32.343771,222.73337 c 0,0 -1.859929,-1.35764 -2.349482,0.27002 -0.489553,1.62767 3.386837,4.08165 3.386837,4.08165 0,0 3.590458,-3.83225 2.316414,-4.58873 -1.274049,-0.75648 -2.663491,0.66849 -2.663491,0.66849 z"
         id="path18155"
         inkscape:transform-center-x="0.15096579"
         inkscape:transform-center-y="0.30525283" />
      <path
         style="fill:#ff6dad;fill-opacity:1;stroke:#832049;stroke-width:0;stroke-linejoin:bevel;stop-color:#000000"
         d="m 114.84238,223.60067 c 0,0 -4.25222,-3.10388 -5.37146,0.61732 -1.11923,3.72124 7.74309,9.3316 7.74309,9.3316 0,0 8.20862,-8.76141 5.29586,-10.49089 -2.91277,-1.72949 -6.08935,1.52831 -6.08935,1.52831 z"
         id="path18157"
         inkscape:transform-center-x="0.34514272"
         inkscape:transform-center-y="0.69787833" />
      <path
         style="fill:#ff6dad;fill-opacity:1;stroke:#832049;stroke-width:0;stroke-linejoin:bevel;stop-color:#000000"
         d="m 104.56206,220.51695 c 0,0 -1.85993,-1.35764 -2.34948,0.27002 -0.48956,1.62767 3.38683,4.08165 3.38683,4.08165 0,0 3.59046,-3.83225 2.31642,-4.58873 -1.27405,-0.75648 -2.66349,0.66849 -2.66349,0.66849 z"
         id="path18159"
         inkscape:transform-center-x="0.15096579"
         inkscape:transform-center-y="0.30525283" />
      <path
         style="fill:#ff6dad;fill-opacity:1;stroke:#832049;stroke-width:0;stroke-linejoin:bevel;stop-color:#000000"
         d="m 106.03967,228.27441 c 0,0 -1.85993,-1.35764 -2.34948,0.27002 -0.48956,1.62767 3.38683,4.08165 3.38683,4.08165 0,0 3.59046,-3.83225 2.31642,-4.58873 -1.27405,-0.75648 -2.66349,0.66849 -2.66349,0.66849 z"
         id="path18161"
         inkscape:transform-center-x="0.15096579"
         inkscape:transform-center-y="0.30525283" />
      <path
         style="fill:#ff6dad;fill-opacity:1;stroke:#832049;stroke-width:0;stroke-linejoin:bevel;stop-color:#000000"
         d="m 120.84171,219.86647 c 0,0 -0.87486,-0.6386 -1.10513,0.12701 -0.23028,0.76562 1.59308,1.91991 1.59308,1.91991 0,0 1.68886,-1.8026 1.08959,-2.15843 -0.59929,-0.35583 -1.25284,0.31445 -1.25284,0.31445 z"
         id="path18163"
         inkscape:transform-center-x="0.071008625"
         inkscape:transform-center-y="0.143583" />
    </g>
  </g>
</svg>
